<svg xmlns="http://www.w3.org/2000/svg" viewBox="0 0 16 28"><g fill="none" class="nc-icon-wrapper"><path d="M10.565 7C13.015 7.117 15 9.217 15 11.667v11.666h-4.667" stroke="#222531" stroke-width="1.5" stroke-miterlimit="10"></path><path d="M5.667 23.333H1V11.667C1 9.217 2.983 7.117 5.433 7" stroke="#222531" stroke-width="1.5" stroke-miterlimit="10"></path><path d="M8.001 26.836a2.34 2.34 0 0 1-2.333-2.333v-5.834a2.34 2.34 0 0 1 2.333-2.333 2.34 2.34 0 0 1 2.334 2.333v5.834A2.34 2.34 0 0 1 8 26.836z" stroke="#222531" stroke-width="1.5" stroke-miterlimit="10" stroke-linecap="square"></path><path d="M4.5 4.668H1" stroke="#222531" stroke-width="1.5" stroke-miterlimit="10" stroke-linecap="square"></path><path d="M15 4.668h-3.5" stroke="#222531" stroke-width="1.5" stroke-miterlimit="10" stroke-linecap="square"></path><path d="M8 8.168a3.5 3.5 0 1 0 0-7 3.5 3.5 0 0 0 0 7z" stroke="#222531" stroke-width="1.5" stroke-miterlimit="10" stroke-linecap="square"></path></g></svg>