<svg xmlns:xlink="http://www.w3.org/1999/xlink" xmlns="http://www.w3.org/2000/svg" width="20" height="20"><defs><symbol id="svg-mesenger" viewBox="0 0 512.000000 512.000000">
                    <g transform="translate(0.000000,512.000000) scale(0.100000,-0.100000)" stroke="none">
                        <path d="M2380 5113 c-491 -47 -892 -191 -1263 -455 -595 -423 -965 -1033
                    -1069 -1763 -16 -117 -17 -512 0 -630 62 -443 213 -825 463 -1172 l59 -81 0
                    -299 c0 -318 8 -399 44 -478 78 -170 282 -268 463 -222 34 9 160 65 280 125
                    l218 109 100 -40 c55 -21 156 -54 225 -73 789 -217 1610 -45 2260 473 108 86
                    296 273 384 383 563 703 716 1630 408 2470 -122 333 -331 660 -585 913 -418
                    418 -947 670 -1536 732 -121 13 -357 17 -451 8z m500 -379 c395 -57 778 -227
                    1078 -478 774 -645 1009 -1742 565 -2630 -220 -440 -570 -788 -1007 -1001
                    -306 -149 -605 -218 -946 -218 -314 1 -590 60 -897 192 -40 17 -88 31 -107 31
                    -25 0 -114 -39 -307 -136 -237 -118 -276 -134 -296 -125 l-23 11 0 357 c-1
                    262 -4 367 -13 393 -7 19 -47 80 -89 135 -235 309 -378 658 -429 1045 -16 122
                    -16 418 0 540 114 867 731 1584 1568 1824 285 82 607 103 903 60z"></path>
                        <path d="M3684 3283 c-17 -10 -182 -125 -366 -255 -312 -221 -339 -238 -378
                    -238 -41 0 -61 13 -335 219 -160 120 -301 223 -312 230 -30 15 -68 14 -103 -4
                    -32 -16 -876 -1208 -892 -1260 -21 -66 39 -140 112 -140 41 0 45 3 509 358
                    216 166 248 187 281 187 31 0 104 -40 429 -234 215 -129 405 -237 421 -241 21
                    -5 42 -1 66 12 32 16 74 85 384 621 191 331 350 612 352 626 8 39 -15 89 -51
                    113 -41 28 -76 29 -117 6z"></path>
                    </g>
                </symbol></defs>
                        <use href="#svg-mesenger" fill="#203B6C"></use>
                    </svg>