<svg xmlns="http://www.w3.org/2000/svg" viewBox="0 0 28 28"><g fill="none" class="nc-icon-wrapper"><path d="M14.001 26.835c7.088 0 12.834-5.746 12.834-12.834 0-7.087-5.746-12.833-12.834-12.833-7.087 0-12.833 5.746-12.833 12.833 0 7.088 5.746 12.834 12.833 12.834z" stroke="#222531" stroke-width="1.5" stroke-miterlimit="10" stroke-linecap="square"></path><path d="M9.333 11.667a2.333 2.333 0 1 0 0-4.667 2.333 2.333 0 0 0 0 4.667z" stroke="#222531" stroke-width="1.5" stroke-miterlimit="10" stroke-linecap="square"></path><path d="M18.67 21.003a2.333 2.333 0 1 0 0-4.667 2.333 2.333 0 0 0 0 4.667z" stroke="#222531" stroke-width="1.5" stroke-miterlimit="10" stroke-linecap="square"></path><path d="M9.336 18.67l9.333-9.334" stroke="#222531" stroke-width="1.5" stroke-miterlimit="10" stroke-linecap="square"></path></g></svg>