<svg xmlns:xlink="http://www.w3.org/1999/xlink" xmlns="http://www.w3.org/2000/svg" width="20" height="20"><defs><symbol id="svg-zalo" viewBox="0 0 380.000000 380.000000">
                    <g transform="translate(0.000000,380.000000) scale(0.100000,-0.100000)" stroke="none">
                        <path d="M346 3784 c-161 -39 -292 -172 -331 -335 -22 -97 -22 -3001 0 -3098
                        20 -85 58 -152 121 -215 63 -63 130 -101 215 -121 97 -22 3001 -22 3098 0 85
                        20 152 58 215 121 63 63 101 130 121 215 22 97 22 3001 0 3098 -20 85 -58 152
                        -121 215 -63 63 -130 101 -215 121 -93 22 -3012 21 -3103 -1z m694 -169 c0 -3
                        -28 -38 -63 -78 -408 -471 -537 -1103 -341 -1686 78 -234 219 -469 395 -656
                        57 -61 65 -95 45 -191 -26 -128 -87 -214 -182 -259 -59 -28 -74 -47 -74 -95 0
                        -80 38 -95 235 -95 147 1 152 1 250 37 55 20 142 55 194 78 140 61 157 62 341
                        2 249 -82 364 -105 594 -122 364 -26 750 46 1075 201 57 27 106 49 108 49 3 0
                        3 -93 1 -208 -4 -230 -8 -249 -73 -320 -20 -23 -57 -51 -83 -64 l-47 -23
                        -1515 0 -1515 0 -47 23 c-53 26 -112 87 -136 141 -16 33 -17 165 -20 1521 -2
                        1029 1 1501 8 1537 19 91 98 175 188 199 47 13 662 21 662 9z m2422 -23 c53
                        -26 112 -87 136 -141 15 -33 17 -145 20 -1237 l2 -1200 -67 -37 c-173 -97
                        -372 -170 -582 -214 -118 -25 -143 -27 -386 -27 -320 -1 -443 19 -715 116
                        -172 61 -263 57 -445 -18 -123 -51 -256 -97 -262 -90 -2 2 10 26 27 52 49 78
                        74 173 74 289 0 120 -2 125 -119 255 -191 212 -317 449 -382 720 -31 128 -43
                        407 -24 542 49 344 209 657 467 916 l103 102 1053 -2 1053 -3 47 -23z"></path>
                        <path d="M2604 2802 c-12 -2 -32 -14 -45 -28 l-24 -26 -3 -426 c-3 -448 -1
                        -467 42 -497 32 -23 83 -19 111 10 l25 24 0 443 c0 484 1 476 -57 495 -16 5
                        -38 7 -49 5z"></path>
                        <path d="M1205 2685 c-38 -37 -35 -95 6 -129 30 -26 33 -26 186 -26 85 0 153
                        -4 151 -8 -1 -4 -85 -139 -185 -299 -209 -333 -214 -348 -143 -396 21 -15 56
                        -17 278 -17 l254 0 29 29 c39 40 39 82 0 122 l-29 29 -161 0 -161 0 14 23 c7
                        12 52 83 98 157 300 478 289 454 243 508 l-27 32 -264 0 -265 0 -24 -25z"></path>
                        <path d="M2034 2429 c-49 -14 -125 -69 -161 -117 -65 -86 -80 -215 -35 -313
                        66 -147 234 -223 383 -172 55 18 57 18 79 1 32 -26 80 -23 113 7 l27 26 0 265
                        0 265 -25 24 c-29 30 -83 33 -116 7 -22 -18 -24 -18 -71 0 -51 19 -141 23
                        -194 7z m164 -189 c86 -53 79 -191 -12 -234 -67 -31 -136 -9 -176 56 -71 116
                        71 249 188 178z"></path>
                        <path d="M3022 2426 c-215 -70 -286 -345 -133 -509 71 -76 128 -101 231 -101
                        73 -1 92 3 135 26 194 102 239 337 96 501 -70 79 -222 118 -329 83z m165 -186
                        c45 -27 65 -62 65 -114 1 -52 -19 -88 -65 -116 -56 -34 -133 -19 -175 35 -27
                        34 -30 119 -6 154 41 58 122 77 181 41z"></path>
                    </g>
                </symbol></defs>
                    <use href="#svg-zalo" fill="#203B6C"></use>
                </svg>